 <svg  xmlns="http://www.w3.org/2000/svg" xmlns:xlink="http://www.w3.org/1999/xlink" viewBox="0,0,256,256" width="17" height="17" fill-rule="nonzero"><defs><linearGradient x1="16.313" y1="8.394" x2="31.386" y2="40.021" gradientUnits="userSpaceOnUse" id="color-1"><stop offset="0" stop-color="#e11818"></stop><stop offset="1" stop-color="#d9001a"></stop></linearGradient></defs><g fill="none" fill-rule="nonzero" stroke="none" stroke-width="1" stroke-linecap="butt" stroke-linejoin="miter" stroke-miterlimit="10" stroke-dasharray="" stroke-dashoffset="0" font-family="none" font-weight="none" font-size="none" text-anchor="none" style="mix-blend-mode: normal"><g transform="scale(5.33333,5.33333)"><path d="M34.764,4h-21.528c-0.758,0 -1.45,0.428 -1.789,1.106l-1.447,2.894h28l-1.447,-2.894c-0.339,-0.678 -1.032,-1.106 -1.789,-1.106z" fill="#f13535"></path><path d="M38,8h-28c-1.105,0 -2,0.895 -2,2v1h32v-1c0,-1.105 -0.895,-2 -2,-2z" fill="#b9393d"></path><path d="M38.5,11h-29l1.627,30.108c0.057,1.061 0.934,1.892 1.997,1.892h21.752c1.063,0 1.94,-0.831 1.997,-1.892z" fill="url(#color-1)"></path></g></g></svg>